<svg width="77" height="23" viewBox="0 0 77 23" fill="none" xmlns="http://www.w3.org/2000/svg">
<path d="M24.9086 6.79398C25.0935 6.73841 25.3801 6.68283 25.7684 6.62725C26.1752 6.57167 26.5913 6.54388 27.0166 6.54388C27.4234 6.54388 27.784 6.57167 28.0984 6.62725C28.4312 6.68283 28.7086 6.79399 28.9305 6.96072C29.1524 7.12746 29.3188 7.35904 29.4298 7.65546C29.5592 7.93335 29.6239 8.30388 29.6239 8.76704V14.7418C29.6239 15.5014 29.8089 16.0479 30.1787 16.3814C30.5485 16.6963 31.0848 16.8538 31.7875 16.8538C32.2128 16.8538 32.5549 16.8167 32.8138 16.7426C33.0911 16.6685 33.3038 16.5944 33.4517 16.5203V6.79398C33.6366 6.73841 33.9233 6.68283 34.3116 6.62725C34.7184 6.57167 35.1345 6.54388 35.5598 6.54388C35.9666 6.54388 36.3272 6.57167 36.6415 6.62725C36.9744 6.68283 37.2518 6.79399 37.4737 6.96072C37.6956 7.12746 37.862 7.35904 37.9729 7.65546C38.1024 7.93335 38.1671 8.30388 38.1671 8.76704V17.215C38.1671 18.1413 37.7788 18.8361 37.0021 19.2992C36.3549 19.7068 35.5783 20.0125 34.6722 20.2163C33.7846 20.4386 32.8138 20.5498 31.7597 20.5498C30.7612 20.5498 29.8366 20.4386 28.986 20.2163C28.1538 19.994 27.4327 19.6512 26.8224 19.1881C26.2122 18.7249 25.7407 18.1321 25.4078 17.4096C25.075 16.6685 24.9086 15.7792 24.9086 14.7418V6.79398Z" fill="#040000"/>
<path d="M53.0353 15.9645C52.7949 16.1683 52.4806 16.335 52.0923 16.4647C51.7224 16.5759 51.2879 16.6315 50.7886 16.6315C50.1229 16.6315 49.5681 16.5481 49.1243 16.3814C48.699 16.2146 48.4216 15.9275 48.2922 15.5199C47.7744 13.8896 47.3491 12.5742 47.0163 11.5738C46.6834 10.5548 46.4245 9.66556 46.2396 8.90598H46.1009C46.0455 9.99904 45.9992 10.9995 45.9623 11.9072C45.9438 12.7965 45.9253 13.6672 45.9068 14.5195C45.9068 15.3717 45.8883 16.2331 45.8513 17.1039C45.8328 17.9746 45.7958 18.938 45.7403 19.994C45.5 20.0866 45.1856 20.1607 44.7973 20.2163C44.4089 20.2904 44.0206 20.3275 43.6323 20.3275C42.8187 20.3275 42.1807 20.1978 41.7184 19.9384C41.2746 19.679 41.0527 19.2066 41.0527 18.5211L41.8571 4.34851C42.005 4.10767 42.3286 3.8483 42.8279 3.57041C43.3272 3.29251 44.0299 3.15356 44.936 3.15356C45.916 3.15356 46.6834 3.31104 47.2382 3.62598C47.7929 3.92241 48.1997 4.41335 48.4586 5.09883C48.6251 5.54346 48.8007 6.05293 48.9856 6.62725C49.189 7.20156 49.3832 7.7944 49.5681 8.40577C49.7715 9.01714 49.9657 9.62851 50.1506 10.2399C50.3355 10.8327 50.502 11.37 50.6499 11.8517H50.7886C51.2324 10.2955 51.6762 8.79483 52.12 7.34977C52.5638 5.88619 52.9706 4.66346 53.3405 3.68156C53.6178 3.53335 53.9692 3.41293 54.3945 3.3203C54.8383 3.20914 55.3283 3.15356 55.8646 3.15356C56.7707 3.15356 57.5103 3.29251 58.0836 3.57041C58.6568 3.82977 58.9897 4.20956 59.0821 4.70977C59.1561 5.0803 59.2301 5.65462 59.304 6.43272C59.3965 7.1923 59.489 8.05377 59.5814 9.01714C59.6739 9.98051 59.7663 10.9995 59.8588 12.074C59.9513 13.1485 60.0345 14.186 60.1084 15.1864C60.2009 16.1683 60.2749 17.0761 60.3303 17.9098C60.3858 18.7249 60.4228 19.3548 60.4413 19.7995C60.1269 19.9847 59.7941 20.1144 59.4427 20.1885C59.1099 20.2811 58.6753 20.3275 58.1391 20.3275C57.4364 20.3275 56.8446 20.207 56.3639 19.9662C55.8831 19.7254 55.6242 19.2529 55.5872 18.5489C55.4763 16.5296 55.4023 14.714 55.3653 13.1022C55.3468 11.4904 55.3098 10.138 55.2544 9.04493H55.1157C54.9308 9.76746 54.6626 10.6752 54.3113 11.7683C53.9599 12.8614 53.5346 14.2601 53.0353 15.9645Z" fill="#040000"/>
<path d="M76.9998 13.3523C76.9998 14.5009 76.8242 15.5291 76.4728 16.4369C76.1215 17.3262 75.6222 18.0765 74.975 18.6879C74.3463 19.2992 73.5881 19.7624 72.7005 20.0774C71.8129 20.3923 70.8236 20.5498 69.7326 20.5498C68.6416 20.5498 67.6522 20.383 66.7646 20.0496C65.877 19.7161 65.1096 19.2437 64.4624 18.6323C63.8337 18.0024 63.3436 17.2428 62.9923 16.3536C62.6409 15.4643 62.4653 14.4639 62.4653 13.3523C62.4653 12.2592 62.6409 11.2681 62.9923 10.3788C63.3436 9.48956 63.8337 8.73925 64.4624 8.12788C65.1096 7.49798 65.877 7.0163 66.7646 6.68283C67.6522 6.34935 68.6416 6.18262 69.7326 6.18262C70.8236 6.18262 71.8129 6.35862 72.7005 6.71062C73.5881 7.04409 74.3463 7.52578 74.975 8.15567C75.6222 8.76704 76.1215 9.51735 76.4728 10.4066C76.8242 11.2959 76.9998 12.2778 76.9998 13.3523ZM67.2916 13.3523C67.2916 14.4824 67.5043 15.3531 67.9296 15.9645C68.3734 16.5574 68.9837 16.8538 69.7603 16.8538C70.537 16.8538 71.1287 16.5481 71.5355 15.9367C71.9608 15.3254 72.1735 14.4639 72.1735 13.3523C72.1735 12.2407 71.9608 11.3885 71.5355 10.7957C71.1102 10.1843 70.5092 9.87861 69.7326 9.87861C68.9559 9.87861 68.3549 10.1843 67.9296 10.7957C67.5043 11.3885 67.2916 12.2407 67.2916 13.3523Z" fill="#040000"/>
<path d="M22.5 11.5C22.5 17.5751 17.5843 22.5 11.5205 22.5C5.45675 22.5 0.54108 17.5751 0.54108 11.5C0.54108 5.42487 5.45675 0.5 11.5205 0.5C17.5843 0.5 22.5 5.42487 22.5 11.5Z" fill="#DB283D"/>
<path d="M8.33986 12.3617C9.00556 12.6396 9.74523 12.9175 10.5589 13.1954L11.7238 13.5844C12.2601 13.7697 12.6762 13.9642 12.972 14.168C13.2679 14.3533 13.4158 14.6312 13.4158 15.0017C13.4158 15.3722 13.2309 15.6964 12.8611 15.9743C12.4912 16.2522 11.8533 16.3912 10.9472 16.3912C10.0596 16.3912 9.2367 16.243 8.47854 15.9465C7.73887 15.6501 7.11016 15.2981 6.59239 14.8905C6.22256 15.0943 5.88046 15.3908 5.5661 15.7798C5.25174 16.1503 5.09456 16.6042 5.09456 17.1415C5.09456 17.6602 5.2425 18.1234 5.53836 18.531C5.85272 18.92 6.27803 19.2535 6.81429 19.5314C7.36904 19.7908 8.007 19.9853 8.72818 20.115C9.46785 20.2632 10.263 20.3373 11.1136 20.3373C13.5175 20.3373 15.339 19.8556 16.5779 18.8922C17.8169 17.9103 18.4363 16.632 18.4363 15.0573C18.4363 13.5752 17.9648 12.408 17.0217 11.5558C16.0971 10.6851 14.7657 9.97181 13.0275 9.41602L11.5574 8.9436C11.0766 8.79539 10.716 8.63791 10.4757 8.47117C10.2353 8.28591 10.1151 8.05433 10.1151 7.77644C10.1151 7.42444 10.3092 7.13728 10.6976 6.91496C11.0859 6.67412 11.6961 6.5537 12.5282 6.5537C13.3419 6.5537 14.0908 6.65559 14.775 6.85938C15.4592 7.04465 16.0047 7.26696 16.4115 7.52633C16.7259 7.28549 16.994 6.99833 17.2159 6.66486C17.4378 6.31286 17.5487 5.89602 17.5487 5.41433C17.5487 4.93265 17.41 4.5158 17.1327 4.16381C16.8553 3.79328 16.467 3.49686 15.9677 3.27454C15.4869 3.0337 14.9044 2.8577 14.2202 2.74654C13.536 2.63538 12.7964 2.57981 12.0012 2.57981C9.81919 2.57981 8.11796 3.05223 6.8975 3.99707C5.69554 4.94191 5.09456 6.2017 5.09456 7.77644C5.09456 8.59159 5.224 9.28633 5.48289 9.86065C5.76026 10.4164 6.13934 10.8981 6.62013 11.3057C7.10091 11.7133 7.67415 12.0653 8.33986 12.3617Z" fill="#FFFEFE"/>
</svg>
