<svg width="671" height="326" viewBox="0 0 671 326" fill="none" xmlns="http://www.w3.org/2000/svg">
<g clip-path="url(#clip0_1167_210609)">
<path d="M402.859 222.474C456.091 222.474 499.245 220.237 499.245 217.476C499.245 214.716 456.091 212.479 402.859 212.479C349.626 212.479 306.472 214.716 306.472 217.476C306.472 220.237 349.626 222.474 402.859 222.474Z" fill="#F0F0F0"/>
<path d="M105.132 326C122.876 326 137.261 323.762 137.261 321.002C137.261 318.242 122.876 316.004 105.132 316.004C87.3875 316.004 73.0029 318.242 73.0029 321.002C73.0029 323.762 87.3875 326 105.132 326Z" fill="#F0F0F0"/>
<path d="M417.435 7.2069L417.063 10.853L487.381 18.0145L487.753 14.3684L417.435 7.2069Z" fill="#E6E6E6"/>
<path d="M398.003 13.6132C401.762 13.6132 404.81 10.5659 404.81 6.80686C404.81 3.0478 401.762 0.000488281 398.003 0.000488281C394.244 0.000488281 391.197 3.0478 391.197 6.80686C391.197 10.5659 394.244 13.6132 398.003 13.6132Z" fill="#E6E6E6"/>
<path d="M417.435 27.1981L417.063 30.8442L487.381 38.0057L487.753 34.3596L417.435 27.1981Z" fill="#E4E4E4"/>
<path d="M398.003 33.6044C401.762 33.6044 404.81 30.5571 404.81 26.7981C404.81 23.039 401.762 19.9917 398.003 19.9917C394.244 19.9917 391.197 23.039 391.197 26.7981C391.197 30.5571 394.244 33.6044 398.003 33.6044Z" fill="#E4E4E4"/>
<path d="M417.435 47.1893L417.063 50.8354L487.381 57.997L487.753 54.3508L417.435 47.1893Z" fill="#DB283D"/>
<path d="M398.003 53.5957C401.762 53.5957 404.81 50.5483 404.81 46.7893C404.81 43.0302 401.762 39.9829 398.003 39.9829C394.244 39.9829 391.197 43.0302 391.197 46.7893C391.197 50.5483 394.244 53.5957 398.003 53.5957Z" fill="#DB283D"/>
<path d="M14.2251 119.111L53.0117 89.6758L52.6954 146.988L16.1278 177.154L14.2251 119.111Z" fill="#E4E4E4"/>
<path d="M183.436 11.9556L258.93 1.29248L260.064 67.0457L184.1 79.6252L183.436 11.9556Z" fill="#DB283D"/>
<path d="M621.334 123.868V181.987L658.87 218.062L660.622 159.146L621.334 123.868Z" fill="#DB283D"/>
<path d="M621.558 71.6665V80.2413L647.71 101.489L648.939 94.1352L621.558 71.6665Z" fill="#DB283D"/>
<path d="M621.972 86.374L621.558 94.956L671 141.528L670.186 131.725L621.972 86.374Z" fill="#E6E6E6"/>
<path d="M621.558 102.31V110.478L671 157.878V147.255L621.558 102.31Z" fill="#E6E6E6"/>
<path d="M106.988 315.026H103.071L101.207 299.913H106.989L106.988 315.026Z" fill="#9E616A"/>
<path d="M107.987 318.824L95.354 318.823V318.663C95.3541 317.359 95.8722 316.109 96.7943 315.186C97.7165 314.264 98.9672 313.746 100.271 313.746L107.988 313.746L107.987 318.824Z" fill="#2F2E41"/>
<path d="M120.882 311.141L117.26 312.635L109.772 299.378L115.117 297.171L120.882 311.141Z" fill="#9E616A"/>
<path d="M123.255 314.27L111.577 319.09L111.516 318.942C111.018 317.737 111.02 316.383 111.521 315.179C112.021 313.975 112.98 313.019 114.185 312.521L121.318 309.577L123.255 314.27Z" fill="#2F2E41"/>
<path d="M109.569 201.374C109.569 201.374 124.107 208.263 114.448 239.822L113.713 264.79L108.895 310.689L101.055 310.19L97.5881 266.004L86.0317 229.508L88.325 211.881L109.569 201.374Z" fill="#2F2E41"/>
<path d="M87.382 216.538L88.5641 193.624C80.5246 180.123 88.7647 172.41 89.4343 171.818L96.801 161.061L103.246 159.292C104.512 158.944 105.841 158.895 107.129 159.148C108.417 159.4 109.629 159.948 110.67 160.748C111.711 161.548 112.552 162.578 113.127 163.758C113.703 164.937 113.997 166.234 113.987 167.547L113.698 205.093L87.382 216.538Z" fill="#DB283D"/>
<path d="M102.087 272.677L110.188 306.278L119.472 302.505L106.891 272.092L102.087 272.677Z" fill="#2F2E41"/>
<path d="M89.7344 228.424C90.2832 228.191 90.7743 227.841 91.1732 227.398C91.5721 226.955 91.869 226.43 92.0431 225.86C92.2172 225.29 92.2642 224.689 92.1807 224.099C92.0973 223.509 91.8855 222.944 91.5602 222.445L99.7744 210.812L92.9309 210.42L85.6518 221.381C84.8491 221.983 84.295 222.858 84.0947 223.841C83.8944 224.825 84.0617 225.847 84.5649 226.715C85.0681 227.583 85.8723 228.237 86.8251 228.552C87.7778 228.867 88.813 228.821 89.7344 228.424Z" fill="#9E616A"/>
<path d="M92.5846 172.299L96.1759 197.634L86.0317 216.737L94.5202 222.051L109.144 200.431L103.021 169.799L92.5846 172.299Z" fill="#DB283D"/>
<path d="M100.033 155.084C106.019 155.084 110.871 150.232 110.871 144.246C110.871 138.261 106.019 133.408 100.033 133.408C94.0472 133.408 89.1948 138.261 89.1948 144.246C89.1948 150.232 94.0472 155.084 100.033 155.084Z" fill="#9E616A"/>
<path d="M116.375 184.661C116.78 178.597 119.318 172.918 121.365 167.196C123.411 161.474 125 155.247 123.453 149.37C122.548 146.341 121.126 143.491 119.25 140.947C115.865 136.037 111.548 131.472 105.955 129.403C100.362 127.334 93.3132 128.365 89.6335 133.058C88.2836 134.71 87.5568 136.783 87.5801 138.916C87.6057 139.975 87.8885 141.012 88.4043 141.938C88.92 142.864 89.6532 143.65 90.5406 144.229C91.5624 144.847 92.7773 145.138 93.7075 145.887C94.6376 146.636 95.1466 148.159 94.3005 149.002L94.6383 149.169C97.6695 149.822 99.3607 153.258 99.3349 156.358C99.3091 159.459 98.0481 162.395 97.2676 165.396C96.487 168.397 96.2587 171.838 98.061 174.362C99.8526 176.87 103.316 177.974 104.623 180.766C106.408 184.575 103.174 188.936 103.562 193.125C103.935 197.147 107.704 200.184 111.648 201.051C115.593 201.918 119.69 201.097 123.645 200.278C118.263 197.455 115.97 190.724 116.375 184.661Z" fill="#2F2E41"/>
<path d="M367.406 129.038L367.935 111.429L365.584 95.0527L362.067 95.2912L359.107 112.522L362.414 130.997C361.777 131.87 361.441 132.927 361.455 134.008C361.47 135.089 361.835 136.136 362.496 136.992C363.156 137.848 364.077 138.466 365.119 138.754C366.161 139.042 367.268 138.984 368.274 138.589C369.281 138.194 370.132 137.483 370.699 136.564C371.267 135.644 371.521 134.564 371.423 133.488C371.326 132.411 370.881 131.395 370.156 130.593C369.432 129.79 368.467 129.245 367.406 129.038Z" fill="#9E616A"/>
<path d="M366.961 170.354L357.102 212.091L364.53 212.619L378.767 172.224L366.961 170.354Z" fill="#9E616A"/>
<path d="M384.535 167.611L398.14 208.281L404.732 204.816L394.291 163.929L384.535 167.611Z" fill="#9E616A"/>
<path d="M366.448 132.582C366.448 132.582 361.724 137.806 369.876 147.833L359.307 203.197L367.16 206.053L381.44 168.926L394.291 201.055L404.287 196.771L390.633 147.833L392.149 135.37L388.374 131.881L366.448 132.582Z" fill="#E4E4E4"/>
<path d="M376.258 76.2212C376.258 76.2212 361.963 81.8215 363.391 90.3892L366.908 124.257L363.291 136.002C363.291 136.002 387.412 139.876 391.823 135.481L392.664 98.2429L394.244 83.5243L386.604 80.4336L384.697 77.6062L376.258 76.2212Z" fill="#3F3D56"/>
<path d="M365.585 86.1421L360.371 97.8805L368.122 100.882L365.585 86.1421Z" fill="#3F3D56"/>
<path d="M404.663 133.913L398.376 100.353L388.375 99.5181L391.193 116.365L398.004 135.427C397.441 136.257 397.141 137.238 397.143 138.241C397.145 139.244 397.449 140.224 398.015 141.052C398.581 141.88 399.383 142.519 400.317 142.886C401.251 143.252 402.273 143.329 403.251 143.107C404.23 142.884 405.118 142.373 405.802 141.639C406.486 140.905 406.933 139.982 407.085 138.99C407.237 137.998 407.088 136.984 406.656 136.079C406.224 135.173 405.529 134.418 404.663 133.913Z" fill="#9E616A"/>
<path d="M382.87 87.6261L388.638 104.002L399.804 102.527C399.804 102.527 402.25 87.3692 394.244 83.5244L382.87 87.6261Z" fill="#3F3D56"/>
<path d="M390.703 63.7294C390.412 77.7483 368.819 75.3544 371.68 61.5815C373.883 50.6212 390.998 52.5693 390.703 63.7294Z" fill="#9E616A"/>
<path d="M385.441 50.835C378.671 51.989 368.186 49.2747 368.392 59.8741C367.698 60.9121 366.935 62.0493 367.428 63.3509C369.816 66.2632 371.064 70.7733 374.181 72.8188C376.959 72.7982 380.586 73.1861 382.45 70.7621C383.241 68.7745 381.841 66.3514 383.035 64.4861C384.601 63.9864 386.129 65.9906 386.74 63.1363C386.655 62.4434 386.757 61.7403 387.038 61.1008C387.318 60.4614 387.765 59.9093 388.333 59.5026C390.784 56.6953 389.114 51.5222 385.441 50.835Z" fill="#3F3D56"/>
<path d="M355.179 211.051L366.853 211.051C368.826 211.051 370.719 211.835 372.114 213.23C373.509 214.625 374.293 216.517 374.293 218.49V218.732L355.179 218.733L355.179 211.051Z" fill="#2F2E41"/>
<path d="M395.28 206.012L406.692 203.551C408.621 203.135 410.636 203.503 412.294 204.572C413.952 205.642 415.117 207.327 415.533 209.255L415.584 209.492L396.9 213.521L395.28 206.012Z" fill="#2F2E41"/>
<path d="M443.78 213.947H447.551L449.346 199.399H443.779L443.78 213.947Z" fill="#FFB6B6"/>
<path d="M442.817 212.715L450.245 212.715C451.5 212.715 452.705 213.214 453.592 214.101C454.48 214.989 454.979 216.193 454.979 217.448V217.602L442.818 217.603L442.817 212.715Z" fill="#2F2E41"/>
<path d="M424.502 213.947H428.274L430.068 199.399H424.501L424.502 213.947Z" fill="#FFB6B6"/>
<path d="M423.54 212.715L430.968 212.715C432.223 212.715 433.427 213.214 434.315 214.101C435.203 214.989 435.701 216.193 435.701 217.448V217.602L423.54 217.603L423.54 212.715Z" fill="#2F2E41"/>
<path d="M468.544 51.8349C468.544 51.2019 468.404 50.5766 468.134 50.0042C467.864 49.4318 467.47 48.9264 466.981 48.5243C466.492 48.1223 465.92 47.8336 465.306 47.679C464.693 47.5244 464.052 47.5078 463.431 47.6304C462.81 47.7529 462.224 48.0116 461.715 48.3878C461.206 48.7639 460.786 49.2483 460.487 49.8059C460.187 50.3636 460.015 50.9807 459.982 51.6129C459.95 52.245 460.058 52.8766 460.298 53.462L451.631 67.1751L446.235 78.0489L450.688 82.0008L454.115 78.3944L465.321 55.9809C466.243 55.7458 467.059 55.2107 467.643 54.46C468.227 53.7093 468.544 52.7857 468.544 51.8349Z" fill="#FFB6B6"/>
<path d="M423.564 96.8153L415.068 95.4985L413.044 110.869L402.017 134.597C401.298 135.045 400.728 135.697 400.379 136.469C400.03 137.241 399.918 138.1 400.056 138.936C400.195 139.772 400.578 140.548 401.158 141.166C401.738 141.784 402.488 142.217 403.313 142.409C404.139 142.601 405.003 142.544 405.796 142.245C406.589 141.946 407.275 141.419 407.769 140.73C408.262 140.041 408.541 139.221 408.568 138.374C408.596 137.527 408.372 136.691 407.924 135.971L419.453 115.153L423.564 96.8153Z" fill="#FFB6B6"/>
<path d="M428.272 122.42C428.272 122.42 420.801 129.328 421.75 146.7L423.843 173.535L423.316 210.944L430.989 210.341L437.693 147.65L444.119 173.353L441.812 207.592L449.204 207.763L456.971 169.069L455.13 140.386L452.037 122.42H428.272Z" fill="#2F2E41"/>
<path d="M436.265 81.9644L418.416 86.9622L427.492 114.155L426.135 124.557L453.657 124.735L447.283 104.629C447.283 104.629 450.86 97.2734 446.775 92.1178L436.265 81.9644Z" fill="#E4E4E4"/>
<path d="M434.123 86.2481L436.265 81.9643C436.265 81.9643 436.196 80.8878 441.228 80.3551L447.133 74.4863L452.538 79.8729L443.405 93.3878L434.123 86.2481Z" fill="#E4E4E4"/>
<path d="M425.555 90.5318C425.555 90.5318 419.13 83.3921 415.56 86.962C411.99 90.5318 413.82 101.883 413.82 101.883L424.939 103.609L425.555 90.5318Z" fill="#E4E4E4"/>
<path d="M428.815 63.0874C439.758 63.1365 439.757 79.7753 428.815 79.8229C417.872 79.7738 417.873 63.135 428.815 63.0874Z" fill="#FFB6B6"/>
<path d="M430.033 70.9018C431.513 71.7728 433.05 72.6638 434.756 72.8506C436.462 73.0374 438.394 72.3192 439.079 70.745C439.293 70.1995 439.407 69.6199 439.414 69.034C439.565 66.0442 438.53 63.1158 436.535 60.8838C435.534 59.7898 434.309 58.9245 432.943 58.3469C431.577 57.7694 430.103 57.4933 428.62 57.5373C425.793 57.6602 423.18 58.9986 420.671 60.3081C418.363 61.5123 415.927 62.8391 414.673 65.12C412.815 68.4998 414.17 72.6377 414.53 76.4775C414.784 79.3407 414.457 82.2255 413.571 84.9598C412.685 87.6941 411.257 90.2217 409.372 92.3919L424.942 93.8672C426.828 94.1454 428.746 94.1259 430.627 93.8094C432.229 93.4515 433.705 92.666 434.896 91.5365C436.088 90.4069 436.952 88.9756 437.395 87.3946C437.838 85.8135 437.845 84.1419 437.414 82.5575C436.983 80.9731 436.131 79.535 434.948 78.3962C432.738 76.2685 429.184 74.7622 429.096 71.6957" fill="#2F2E41"/>
<path d="M0 108.577L57.0329 66.8262L56.5817 70.3982L0.177779 112.522L0 108.577Z" fill="#DB283D"/>
<path d="M297.691 302.052C313.417 301.987 313.418 305.458 297.691 305.393C281.965 305.458 281.965 301.987 297.691 302.052Z" fill="#F0F0F0"/>
<path d="M68.5057 300.623C84.2318 300.559 84.232 304.03 68.5053 303.965C52.7795 304.03 52.7794 300.558 68.5057 300.623Z" fill="#F0F0F0"/>
<path d="M508.313 239.936C524.039 239.871 524.04 243.342 508.313 243.277C492.587 243.342 492.587 239.871 508.313 239.936Z" fill="#F0F0F0"/>
<path d="M507.057 237.399C507.089 235.875 505.996 234.22 504.472 234.209C503.864 234.251 503.289 234.497 502.839 234.908C502.389 235.318 502.092 235.869 501.995 236.47C501.918 237.074 501.967 237.687 502.138 238.272C502.31 238.856 502.6 239.398 502.992 239.864C503.779 240.79 504.693 241.602 505.705 242.277L505.974 241.295C505.786 241.413 505.586 241.512 505.378 241.588C506.197 240.303 507.025 238.923 507.057 237.399Z" fill="#F0F0F0"/>
<path d="M505.974 241.295C506.208 241.144 506.423 240.966 506.614 240.765C506.438 240.8 506.264 240.847 506.087 240.88L505.974 241.295Z" fill="#F0F0F0"/>
<path d="M517.417 229.366C516.713 228.813 515.879 228.451 514.994 228.313C514.109 228.175 513.204 228.267 512.365 228.58C511.533 228.908 510.783 229.416 510.168 230.066C509.554 230.717 509.09 231.494 508.809 232.344C508.258 233.983 508.371 235.763 508.104 237.471C507.95 238.694 507.431 239.842 506.614 240.765C509.349 240.219 512.008 239.342 514.532 238.155C516.356 237.292 518.245 236.104 518.878 234.188C519.133 233.329 519.13 232.415 518.871 231.558C518.611 230.701 518.106 229.939 517.417 229.366Z" fill="#F0F0F0"/>
<path d="M297.863 299.515C297.895 297.991 296.802 296.335 295.277 296.325C294.67 296.367 294.094 296.613 293.645 297.024C293.195 297.434 292.897 297.985 292.801 298.586C292.724 299.19 292.772 299.803 292.944 300.387C293.115 300.971 293.406 301.513 293.797 301.98C294.585 302.906 295.498 303.718 296.51 304.392L296.78 303.411C296.592 303.529 296.392 303.627 296.183 303.703C297.003 302.418 297.831 301.039 297.863 299.515Z" fill="#F0F0F0"/>
<path d="M296.78 303.411C297.014 303.26 297.229 303.082 297.42 302.88C297.244 302.916 297.07 302.963 296.894 302.996L296.78 303.411Z" fill="#F0F0F0"/>
<path d="M308.223 291.481C307.519 290.928 306.684 290.566 305.8 290.428C304.915 290.291 304.01 290.383 303.171 290.696C302.338 291.024 301.588 291.531 300.974 292.181C300.359 292.832 299.895 293.61 299.615 294.459C299.064 296.098 299.177 297.878 298.909 299.586C298.756 300.809 298.237 301.957 297.42 302.88C300.155 302.334 302.814 301.458 305.337 300.27C307.162 299.407 309.05 298.22 309.683 296.303C309.938 295.445 309.936 294.53 309.676 293.673C309.417 292.816 308.912 292.054 308.223 291.481Z" fill="#F0F0F0"/>
<path d="M68.678 298.087C68.7099 296.563 67.6165 294.907 66.0923 294.897C65.4848 294.939 64.9092 295.185 64.4595 295.595C64.0097 296.006 63.7123 296.557 63.6157 297.158C63.5385 297.762 63.5872 298.375 63.7587 298.959C63.9302 299.543 64.2209 300.085 64.6123 300.551C65.4 301.478 66.3132 302.29 67.3254 302.964L67.5944 301.983C67.4066 302.101 67.2067 302.199 66.9981 302.275C67.8181 300.99 68.646 299.611 68.678 298.087Z" fill="#F0F0F0"/>
<path d="M67.5942 301.983C67.8282 301.832 68.0432 301.654 68.2348 301.452C68.0586 301.488 67.8848 301.535 67.7081 301.567L67.5942 301.983Z" fill="#F0F0F0"/>
<path d="M79.038 290.054C78.3338 289.501 77.4993 289.138 76.6146 289.001C75.7299 288.863 74.8247 288.955 73.9858 289.268C73.1533 289.596 72.4032 290.103 71.7887 290.754C71.1741 291.404 70.7102 292.182 70.4298 293.032C69.8785 294.67 69.9921 296.45 69.7244 298.158C69.571 299.381 69.0518 300.529 68.2349 301.452C70.97 300.906 73.6286 300.03 76.1522 298.842C77.9769 297.98 79.8653 296.792 80.4983 294.875C80.7532 294.017 80.7508 293.102 80.4912 292.245C80.2317 291.388 79.7264 290.626 79.038 290.054Z" fill="#F0F0F0"/>
</g>
<defs>
<clipPath id="clip0_1167_210609">
<rect width="671" height="326" fill="white"/>
</clipPath>
</defs>
</svg>
