<svg width="411" height="341" viewBox="0 0 411 341" fill="none" xmlns="http://www.w3.org/2000/svg">
<g clip-path="url(#clip0_1167_210484)">
<path d="M242.891 0H123.462C104.887 0 89.8286 15.0608 89.8286 33.6391V306.599C89.8286 325.178 104.887 340.239 123.462 340.239H242.891C261.466 340.239 276.524 325.178 276.524 306.599V33.6391C276.524 15.0608 261.466 0 242.891 0Z" fill="#3F3D56"/>
<path d="M273.375 33.6416V306.6C273.365 314.684 270.151 322.433 264.436 328.149C258.721 333.865 250.973 337.08 242.891 337.09H123.463C115.381 337.08 107.632 333.865 101.917 328.149C96.2026 322.433 92.9879 314.684 92.9785 306.6V33.6416C92.9879 25.5581 96.2026 17.8083 101.917 12.0924C107.632 6.37653 115.381 3.16121 123.463 3.15186H139.08V8.54757C139.08 10.9903 140.05 13.3329 141.777 15.0602C143.504 16.7875 145.846 17.7579 148.289 17.7581H218.065C220.507 17.7579 222.849 16.7875 224.576 15.0602C226.303 13.3329 227.273 10.9903 227.274 8.54757V3.15186H242.891C250.973 3.16122 258.721 6.37653 264.436 12.0924C270.151 17.8083 273.365 25.5581 273.375 33.6416Z" fill="white"/>
<path d="M88.9695 69.0216C88.3621 69.0209 87.7799 68.7793 87.3504 68.3498C86.921 67.9202 86.6794 67.3379 86.6787 66.7304V62.1481C86.6787 61.5404 86.9201 60.9577 87.3497 60.528C87.7793 60.0983 88.3619 59.8569 88.9695 59.8569C89.577 59.8569 90.1597 60.0983 90.5893 60.528C91.0189 60.9577 91.2602 61.5404 91.2602 62.1481V66.7304C91.2595 67.3379 91.0179 67.9202 90.5885 68.3498C90.159 68.7793 89.5768 69.0209 88.9695 69.0216Z" fill="#3F3D56"/>
<path d="M88.9695 92.5183C88.3621 92.5176 87.7799 92.276 87.3504 91.8465C86.921 91.417 86.6794 90.8346 86.6787 90.2272V77.6134C86.6787 77.0058 86.9201 76.423 87.3497 75.9933C87.7793 75.5637 88.3619 75.3223 88.9695 75.3223C89.577 75.3223 90.1597 75.5637 90.5893 75.9933C91.0189 76.423 91.2602 77.0058 91.2602 77.6134V90.2272C91.2595 90.8346 91.0179 91.417 90.5885 91.8465C90.159 92.276 89.5768 92.5176 88.9695 92.5183Z" fill="#3F3D56"/>
<path d="M88.9695 111.408C88.3621 111.407 87.7799 111.166 87.3504 110.736C86.921 110.307 86.6794 109.724 86.6787 109.117V96.5031C86.6787 95.8954 86.9201 95.3127 87.3497 94.883C87.7793 94.4533 88.3619 94.2119 88.9695 94.2119C89.577 94.2119 90.1597 94.4533 90.5893 94.883C91.0189 95.3127 91.2602 95.8954 91.2602 96.5031V109.117C91.2595 109.724 91.0179 110.307 90.5885 110.736C90.159 111.166 89.5768 111.407 88.9695 111.408Z" fill="#3F3D56"/>
<path d="M276.811 101.098C276.203 101.097 275.621 100.855 275.192 100.426C274.762 99.9964 274.521 99.414 274.52 98.8065V68.0285C274.52 67.4208 274.761 66.838 275.191 66.4084C275.621 65.9787 276.203 65.7373 276.811 65.7373C277.418 65.7373 278.001 65.9787 278.431 66.4084C278.86 66.838 279.102 67.4208 279.102 68.0285V98.8065C279.101 99.414 278.859 99.9964 278.43 100.426C278 100.855 277.418 101.097 276.811 101.098Z" fill="#3F3D56"/>
<path d="M188.097 10.5085H170.344C169.964 10.5085 169.6 10.3576 169.331 10.0891C169.063 9.82052 168.912 9.4563 168.912 9.07651C168.912 8.69673 169.063 8.3325 169.331 8.06395C169.6 7.7954 169.964 7.64453 170.344 7.64453H188.097C188.477 7.64453 188.841 7.7954 189.11 8.06395C189.378 8.3325 189.529 8.69673 189.529 9.07651C189.529 9.4563 189.378 9.82052 189.11 10.0891C188.841 10.3576 188.477 10.5085 188.097 10.5085Z" fill="white"/>
<path d="M197.26 10.2218C197.893 10.2218 198.405 9.70894 198.405 9.07625C198.405 8.44356 197.893 7.93066 197.26 7.93066C196.628 7.93066 196.115 8.44356 196.115 9.07625C196.115 9.70894 196.628 10.2218 197.26 10.2218Z" fill="white"/>
<path d="M132.257 16.6527H116.794C116.035 16.6527 115.306 16.351 114.769 15.8139C114.232 15.2768 113.931 14.5483 113.931 13.7888C113.931 13.0292 114.232 12.3007 114.769 11.7636C115.306 11.2265 116.035 10.9248 116.794 10.9248H132.257C133.016 10.9248 133.744 11.2265 134.281 11.7636C134.818 12.3007 135.12 13.0292 135.12 13.7888C135.12 14.5483 134.818 15.2768 134.281 15.8139C133.744 16.351 133.016 16.6527 132.257 16.6527Z" fill="#E6E6E6"/>
<path d="M190.908 136.723H175.445C174.686 136.723 173.958 136.421 173.421 135.884C172.884 135.347 172.582 134.618 172.582 133.859C172.582 133.099 172.884 132.371 173.421 131.833C173.958 131.296 174.686 130.995 175.445 130.995H190.908C191.667 130.995 192.396 131.296 192.933 131.833C193.47 132.371 193.771 133.099 193.771 133.859C193.771 134.618 193.47 135.347 192.933 135.884C192.396 136.421 191.667 136.723 190.908 136.723Z" fill="#E6E6E6"/>
<path d="M233.622 16.3666C235.045 16.3666 236.199 15.2125 236.199 13.789C236.199 12.3654 235.045 11.2114 233.622 11.2114C232.199 11.2114 231.045 12.3654 231.045 13.789C231.045 15.2125 232.199 16.3666 233.622 16.3666Z" fill="#E6E6E6"/>
<path d="M241.64 16.3666C243.063 16.3666 244.217 15.2125 244.217 13.789C244.217 12.3654 243.063 11.2114 241.64 11.2114C240.216 11.2114 239.062 12.3654 239.062 13.789C239.062 15.2125 240.216 16.3666 241.64 16.3666Z" fill="#E6E6E6"/>
<path d="M249.657 16.3666C251.08 16.3666 252.234 15.2125 252.234 13.789C252.234 12.3654 251.08 11.2114 249.657 11.2114C248.234 11.2114 247.08 12.3654 247.08 13.789C247.08 15.2125 248.234 16.3666 249.657 16.3666Z" fill="#E6E6E6"/>
<path d="M232.601 176.818H125.662C122.909 176.815 120.269 175.72 118.322 173.772C116.375 171.825 115.28 169.185 115.277 166.431V155.701C115.28 152.948 116.375 150.307 118.322 148.36C120.269 146.413 122.909 145.318 125.662 145.314H232.601C235.354 145.318 237.994 146.413 239.941 148.36C241.888 150.307 242.983 152.948 242.986 155.701V166.431C242.983 169.185 241.888 171.825 239.941 173.772C237.994 175.72 235.354 176.815 232.601 176.818ZM125.662 146.46C123.212 146.463 120.864 147.437 119.132 149.17C117.399 150.902 116.425 153.251 116.422 155.701V166.431C116.425 168.881 117.399 171.23 119.132 172.963C120.864 174.695 123.212 175.67 125.662 175.672H232.601C235.051 175.67 237.399 174.695 239.131 172.963C240.863 171.23 241.838 168.881 241.841 166.431V155.701C241.838 153.251 240.863 150.902 239.131 149.17C237.399 147.437 235.051 146.463 232.601 146.46H125.662Z" fill="#E6E6E6"/>
<path d="M190.908 216.341H175.445C174.686 216.341 173.958 216.039 173.421 215.502C172.884 214.965 172.582 214.236 172.582 213.477C172.582 212.717 172.884 211.989 173.421 211.452C173.958 210.915 174.686 210.613 175.445 210.613H190.908C191.667 210.613 192.396 210.915 192.933 211.452C193.47 211.989 193.771 212.717 193.771 213.477C193.771 214.236 193.47 214.965 192.933 215.502C192.396 216.039 191.667 216.341 190.908 216.341Z" fill="#E6E6E6"/>
<path d="M194.46 299.396H171.893C171.344 299.396 170.8 299.289 170.293 299.079C169.785 298.869 169.324 298.562 168.935 298.173C168.547 297.785 168.238 297.324 168.028 296.817C167.818 296.309 167.709 295.765 167.709 295.216C167.709 294.667 167.818 294.123 168.028 293.615C168.238 293.108 168.547 292.647 168.935 292.259C169.324 291.87 169.785 291.563 170.293 291.353C170.8 291.143 171.344 291.035 171.893 291.036H194.46C195.569 291.036 196.632 291.477 197.415 292.26C198.199 293.044 198.639 294.107 198.639 295.216C198.639 296.325 198.199 297.388 197.415 298.172C196.632 298.955 195.569 299.396 194.46 299.396Z" fill="#DB283D"/>
<path d="M232.601 256.436H125.662C122.909 256.433 120.269 255.338 118.322 253.391C116.375 251.443 115.28 248.803 115.277 246.049V235.32C115.28 232.566 116.375 229.926 118.322 227.978C120.269 226.031 122.909 224.936 125.662 224.933H232.601C235.354 224.936 237.994 226.031 239.941 227.978C241.888 229.926 242.983 232.566 242.986 235.32V246.049C242.983 248.803 241.888 251.443 239.941 253.391C237.994 255.338 235.354 256.433 232.601 256.436ZM125.662 226.078C123.212 226.081 120.864 227.056 119.132 228.788C117.399 230.52 116.425 232.869 116.422 235.32V246.049C116.425 248.499 117.399 250.848 119.132 252.581C120.864 254.313 123.212 255.288 125.662 255.291H232.601C235.051 255.288 237.399 254.313 239.131 252.581C240.863 250.848 241.838 248.499 241.841 246.049V235.32C241.838 232.869 240.863 230.52 239.131 228.788C237.399 227.056 235.051 226.081 232.601 226.078H125.662Z" fill="#E6E6E6"/>
<path d="M252.234 110.835H113.931V111.981H252.234V110.835Z" fill="#E6E6E6"/>
<path d="M248.638 156.295C248.772 157.252 249.275 158.12 250.039 158.712C250.803 159.304 251.768 159.575 252.728 159.467C252.923 159.442 253.116 159.401 253.304 159.344L260.998 169.759L267.655 167.713L255.573 154.586C255.277 153.824 254.737 153.182 254.037 152.759C253.338 152.336 252.518 152.157 251.706 152.249C251.244 152.306 250.798 152.453 250.394 152.683C249.989 152.912 249.633 153.219 249.347 153.586C249.061 153.952 248.85 154.372 248.726 154.82C248.602 155.268 248.567 155.737 248.624 156.198C248.628 156.231 248.633 156.263 248.638 156.295Z" fill="#FFB6B6"/>
<path d="M345.457 229.413C344.77 228.733 344.375 227.812 344.356 226.845C344.338 225.879 344.697 224.943 345.358 224.237C345.495 224.096 345.643 223.966 345.801 223.849L342.049 211.456L347.667 207.339L350.971 224.872C351.405 225.565 351.597 226.382 351.518 227.196C351.439 228.009 351.093 228.774 350.534 229.37C350.212 229.706 349.828 229.976 349.402 230.163C348.977 230.351 348.518 230.453 348.053 230.463C347.588 230.473 347.126 230.392 346.692 230.224C346.259 230.055 345.862 229.803 345.526 229.482C345.503 229.459 345.48 229.436 345.457 229.413Z" fill="#FFB6B6"/>
<path d="M313.617 333.611L307.946 333.61L305.249 311.735L313.618 311.736L313.617 333.611Z" fill="#FFB6B6"/>
<path d="M313.816 339.527L296.379 339.527V339.306C296.38 337.506 297.095 335.78 298.367 334.507C299.64 333.234 301.366 332.518 303.166 332.518L306.352 330.102L312.294 332.519L313.816 332.519L313.816 339.527Z" fill="#2F2E41"/>
<path d="M338.242 333.611L332.572 333.61L329.875 311.735L338.243 311.736L338.242 333.611Z" fill="#FFB6B6"/>
<path d="M338.441 339.527L321.005 339.527V339.306C321.005 337.506 321.72 335.78 322.993 334.507C324.266 333.234 325.992 332.518 327.792 332.518L330.977 330.102L336.92 332.519L338.442 332.519L338.441 339.527Z" fill="#2F2E41"/>
<path d="M296.818 216.03C296.818 216.03 290.364 225.03 295.023 240.578C299.682 256.126 297.066 270.026 298.374 272.813C299.682 275.6 302.314 278.248 300.139 280.361C297.964 282.474 296.818 284.192 298.537 284.765C300.255 285.338 305.981 325.433 305.981 325.433L315.717 326.006C315.717 326.006 319.244 307.381 315.476 292.35C315.476 292.35 316.303 281.438 314.578 278.233C312.854 275.028 313.192 277.919 313.309 273.896C313.374 270.986 313.798 268.096 314.572 265.29C315.144 262.999 315.476 239.907 315.476 239.907L328.133 268.431C328.513 269.487 328.656 270.613 328.551 271.731C328.316 273.309 328.314 275.668 328.601 276.494C328.889 277.319 329.209 277.492 329.049 279.124C328.889 280.756 328.889 324.026 328.889 324.026H339.77L344.924 280.756C343.997 279.728 343.225 278.57 342.633 277.319C341.488 275.028 341.443 274.901 342.038 273.246C342.633 271.591 342.633 268.366 342.633 267.401C342.633 266.436 343.228 222.619 335.772 216.174C328.316 209.729 296.818 216.03 296.818 216.03Z" fill="#2F2E41"/>
<path d="M330.233 147.246L319.363 144.429L314.289 137.43L302.239 138.911L299.674 148.459L291.095 153.439C291.095 153.439 295.837 203.6 294.709 206.354C293.581 209.108 289.537 208.881 292.991 212.431C296.444 215.982 296.902 214.551 296.1 218.417C295.299 222.282 289.457 226.373 296.1 226.332C302.744 226.292 342.832 225.719 341.687 221.137C340.541 216.554 340.559 217.718 338.832 214.845C337.105 211.972 335.943 213.577 336.524 209.338C337.105 205.098 336.533 202.235 336.533 199.943C336.533 197.652 334.614 176.832 334.614 176.832L330.233 147.246Z" fill="#3F3D56"/>
<path d="M296.318 152.477C296.318 152.477 285.563 151.256 283.272 156.411C280.982 161.566 275.209 172.3 275.209 172.3C275.209 172.3 270.708 167.591 270.272 165.456C269.902 163.644 269.699 166.671 266.676 163.394C265.321 161.926 266.466 161.926 264.748 161.353L261.312 160.207L255.585 165.362C255.585 165.362 255.473 171.591 258.448 171.663C261.424 171.735 257.303 170.517 261.312 174.527C263.382 176.597 261.483 176.254 264.933 178.361C268.383 180.468 267.993 180.459 269.047 181.609C270.101 182.759 275.755 183.597 275.755 183.597L301.08 169.58L296.318 152.477Z" fill="#3F3D56"/>
<path d="M324.581 149.413C324.581 149.413 329.193 142.655 337.075 151.435C344.958 160.215 350.851 200.297 350.482 201.736C350.112 203.175 348.033 202.349 350.504 204.767C352.975 207.184 354.693 205.466 352.975 207.184C351.257 208.902 347.671 210.52 350.61 211.143C353.548 211.766 342.118 215.198 342.118 215.198C342.118 215.198 340.453 214.589 340.382 210.576C340.343 208.322 341.488 207.176 339.77 206.603C338.052 206.031 340.165 202.205 339.984 201.544C339.803 200.883 328.922 171.671 328.922 171.671L324.581 149.413Z" fill="#3F3D56"/>
<path d="M306.455 136.232C313.747 136.232 319.659 130.319 319.659 123.025C319.659 115.732 313.747 109.819 306.455 109.819C299.163 109.819 293.251 115.732 293.251 123.025C293.251 130.319 299.163 136.232 306.455 136.232Z" fill="#FFB6B6"/>
<path d="M315.145 133.286C312.024 130.846 316.29 120.112 311.136 122.403C311.136 122.403 304.836 118.393 303.571 121.028C302.105 124.079 296.893 122.695 293.692 121.618C293.943 121.033 294.122 120.42 294.224 119.791C293.633 120.257 293.007 120.676 292.352 121.045C291.912 120.81 291.523 120.491 291.206 120.106C290.894 119.748 290.699 119.304 290.646 118.832C290.594 118.36 290.688 117.883 290.914 117.466C291.447 116.646 292.546 116.394 293.194 115.667C293.268 115.565 293.317 115.446 293.336 115.32C293.355 115.195 293.343 115.067 293.301 114.947C293.224 114.655 293.212 114.349 293.267 114.051C293.322 113.753 293.441 113.471 293.617 113.225C293.793 112.979 294.022 112.775 294.286 112.627C294.55 112.479 294.843 112.391 295.145 112.37C295.266 112.373 295.387 112.347 295.496 112.293C296.039 111.961 296.541 111.565 296.99 111.113C296.238 111.15 295.484 111.129 294.734 111.05C294.579 111.033 294.425 111.016 294.27 110.993C294.557 110.321 294.985 109.718 295.525 109.227C296.066 108.736 296.707 108.367 297.403 108.146C298.873 107.702 300.403 107.487 301.938 107.51C302.826 107.482 303.714 107.453 304.596 107.424C306.466 107.291 308.346 107.357 310.202 107.619C312.186 107.981 314.065 108.777 315.705 109.949C317.346 111.121 318.707 112.642 319.692 114.401C321.633 117.924 323.735 129.276 315.145 133.286Z" fill="#2F2E41"/>
<path d="M281.451 195.47L213.387 219.539C211.705 220.132 209.855 220.033 208.245 219.264C206.635 218.495 205.396 217.119 204.799 215.437L193.107 182.361C192.514 180.677 192.613 178.828 193.382 177.217C194.151 175.607 195.527 174.367 197.209 173.771L265.272 149.702C266.955 149.109 268.804 149.208 270.414 149.977C272.024 150.746 273.264 152.122 273.86 153.804L285.553 186.881C286.146 188.564 286.047 190.413 285.278 192.024C284.509 193.634 283.133 194.874 281.451 195.47Z" fill="#DB283D"/>
<path d="M209.14 181.451C204.629 184.42 198.846 182.185 196.824 178.931L197.147 178.747C200.987 176.353 206.691 177.687 209.14 181.451Z" fill="white"/>
<path d="M265.677 189.875C265.207 190.07 264.702 190.166 264.193 190.157C263.685 190.148 263.184 190.033 262.721 189.821C260.784 188.859 259.875 186.005 259.145 183.711C258.933 183.044 258.732 182.414 258.527 181.899L258.525 181.891C258.169 180.869 258.231 179.748 258.697 178.772C259.163 177.795 259.995 177.042 261.013 176.676L270.168 173.439C270.637 173.244 271.142 173.148 271.65 173.157C272.158 173.166 272.659 173.28 273.121 173.492C275.057 174.453 275.967 177.306 276.698 179.599C276.911 180.267 277.112 180.899 277.317 181.414C277.675 182.437 277.614 183.56 277.148 184.538C276.682 185.516 275.849 186.271 274.83 186.638L265.677 189.875Z" fill="white"/>
<path d="M209.577 198.984C209.414 199.048 209.236 199.067 209.063 199.038C208.889 199.01 208.727 198.934 208.594 198.82C208.437 198.684 208.319 198.509 208.249 198.313C208.18 198.117 208.162 197.907 208.198 197.702C208.231 197.526 208.312 197.363 208.433 197.23C208.553 197.097 208.708 197 208.88 196.95L212.364 195.718C212.529 195.649 212.71 195.628 212.887 195.655C213.064 195.683 213.23 195.759 213.366 195.875C213.522 196.012 213.641 196.187 213.71 196.383C213.779 196.578 213.797 196.789 213.761 196.993C213.727 197.169 213.646 197.332 213.526 197.465C213.406 197.597 213.251 197.694 213.08 197.745L209.595 198.977L209.577 198.984Z" fill="white"/>
<path d="M207.726 206.891C207.42 206.948 207.104 206.92 206.813 206.812C206.521 206.703 206.265 206.516 206.072 206.273C205.846 205.982 205.699 205.638 205.645 205.273C205.591 204.909 205.632 204.537 205.763 204.193C205.881 203.898 206.078 203.642 206.332 203.452C206.586 203.261 206.888 203.145 207.205 203.117L220.183 198.76C220.494 198.697 220.816 198.721 221.114 198.83C221.413 198.939 221.675 199.127 221.873 199.375C222.098 199.667 222.244 200.011 222.298 200.375C222.352 200.739 222.311 201.111 222.18 201.455C222.061 201.749 221.864 202.005 221.61 202.194C221.356 202.384 221.054 202.5 220.739 202.53L207.76 206.886L207.726 206.891Z" fill="white"/>
<path d="M276.407 161.005L195.884 189.479L196.02 189.864L276.543 161.389L276.407 161.005Z" fill="white"/>
<path d="M263.603 183.119C264.868 183.119 265.894 182.093 265.894 180.828C265.894 179.562 264.868 178.537 263.603 178.537C262.338 178.537 261.312 179.562 261.312 180.828C261.312 182.093 262.338 183.119 263.603 183.119Z" fill="#DB283D"/>
<path d="M271.048 183.692C271.997 183.692 272.766 182.922 272.766 181.973C272.766 181.024 271.997 180.255 271.048 180.255C270.099 180.255 269.33 181.024 269.33 181.973C269.33 182.922 270.099 183.692 271.048 183.692Z" fill="#DB283D"/>
<path d="M3.01635e-06 340.318C-0.000263895 340.408 0.0171857 340.497 0.0513417 340.58C0.0854978 340.662 0.135691 340.738 0.199031 340.801C0.262371 340.864 0.337605 340.914 0.420412 340.949C0.50322 340.983 0.591963 341 0.681536 341H410.319C410.499 341 410.673 340.928 410.8 340.8C410.928 340.672 411 340.499 411 340.318C411 340.138 410.928 339.964 410.8 339.836C410.673 339.709 410.499 339.637 410.319 339.637H0.681501C0.591932 339.636 0.503197 339.654 0.420395 339.688C0.337593 339.722 0.262358 339.772 0.199022 339.836C0.135687 339.899 0.0854967 339.974 0.0513417 340.057C0.0171867 340.14 -0.000260833 340.229 3.01635e-06 340.318Z" fill="#CCCCCC"/>
<path d="M142.401 325.548C142.072 325.563 141.746 325.477 141.467 325.3C141.189 325.124 140.971 324.866 140.844 324.562C140.717 324.258 140.686 323.922 140.756 323.6C140.826 323.278 140.994 322.985 141.236 322.761L141.346 322.323C141.331 322.288 141.317 322.253 141.302 322.218C140.97 321.434 140.415 320.766 139.704 320.297C138.994 319.828 138.161 319.58 137.31 319.583C136.459 319.586 135.628 319.841 134.922 320.315C134.215 320.789 133.664 321.461 133.338 322.247C132.035 325.385 130.377 328.528 129.969 331.846C129.789 333.312 129.865 334.799 130.193 336.24C127.133 329.565 125.545 322.31 125.535 314.967C125.534 313.124 125.636 311.283 125.841 309.452C126.01 307.951 126.245 306.46 126.546 304.98C128.186 296.951 131.706 289.425 136.819 283.021C139.293 281.671 141.294 279.594 142.552 277.071C143.008 276.164 143.33 275.196 143.509 274.197C143.23 274.234 142.456 269.982 142.667 269.721C142.278 269.13 141.582 268.837 141.157 268.261C139.044 265.396 136.133 265.896 134.613 269.79C131.367 271.428 131.335 274.146 133.327 276.76C134.595 278.423 134.769 280.673 135.881 282.453C135.766 282.6 135.647 282.742 135.533 282.888C133.442 285.578 131.619 288.466 130.091 291.511C130.463 288.099 130.019 284.649 128.797 281.442C127.559 278.454 125.237 275.937 123.193 273.353C120.737 270.25 115.702 271.604 115.269 275.538C115.265 275.576 115.261 275.614 115.257 275.652C115.561 275.824 115.858 276.006 116.149 276.198C116.514 276.442 116.797 276.791 116.961 277.199C117.125 277.607 117.162 278.054 117.067 278.483C116.971 278.912 116.749 279.303 116.428 279.603C116.108 279.904 115.704 280.1 115.27 280.167L115.225 280.174C115.333 281.269 115.524 282.354 115.797 283.419C113.174 293.563 118.836 297.258 126.921 297.424C127.1 297.516 127.273 297.607 127.452 297.694C125.917 302.045 124.954 306.578 124.587 311.177C124.38 313.891 124.392 316.617 124.624 319.328L124.61 319.232C124.025 316.217 122.416 313.496 120.057 311.53C116.553 308.651 111.603 307.591 107.823 305.277C107.421 305.019 106.954 304.881 106.477 304.88C106 304.879 105.532 305.014 105.129 305.27C104.726 305.526 104.404 305.892 104.203 306.325C104.001 306.758 103.927 307.239 103.989 307.712C103.995 307.746 104 307.78 104.005 307.813C104.568 308.043 105.117 308.307 105.648 308.605C105.951 308.776 106.249 308.958 106.539 309.151C106.905 309.395 107.188 309.744 107.352 310.151C107.515 310.559 107.552 311.007 107.457 311.436C107.362 311.865 107.14 312.256 106.819 312.556C106.498 312.857 106.094 313.053 105.66 313.12L105.616 313.127C105.584 313.132 105.556 313.136 105.524 313.141C106.487 315.44 107.838 317.556 109.519 319.397C111.159 328.253 118.202 329.093 125.736 326.514H125.741C126.567 330.107 127.765 333.604 129.314 336.949H142.081C142.127 336.807 142.168 336.661 142.209 336.519C141.028 336.593 139.841 336.522 138.677 336.308C139.624 335.146 140.571 333.974 141.518 332.812C141.539 332.79 141.559 332.767 141.578 332.743C142.058 332.148 142.543 331.558 143.024 330.963L143.024 330.962C143.05 329.138 142.84 327.318 142.401 325.548Z" fill="#F2F2F2"/>
</g>
<defs>
<clipPath id="clip0_1167_210484">
<rect width="411" height="341" fill="white"/>
</clipPath>
</defs>
</svg>
