<svg width="493" height="333" viewBox="0 0 493 333" fill="none" xmlns="http://www.w3.org/2000/svg">
<g clip-path="url(#clip0_1167_210774)">
<path d="M488.202 6.24623e-09H154.611C153.34 0.0011086 152.122 0.506198 151.224 1.40438C150.325 2.30257 149.82 3.52045 149.819 4.79066V125.332H230.551C232.737 125.334 234.832 126.203 236.377 127.748C237.923 129.293 238.792 131.388 238.795 133.572V235.555H488.202C488.895 235.555 489.58 235.405 490.209 235.115C490.838 234.824 491.397 234.401 491.846 233.874C491.884 233.833 491.919 233.789 491.95 233.742C492.237 233.393 492.468 233.002 492.637 232.583C492.879 232.007 493.002 231.389 493 230.765V4.79066C492.999 3.51957 492.492 2.30103 491.593 1.40275C490.693 0.504471 489.474 -6.482e-05 488.202 6.24623e-09Z" fill="#F2F2F2"/>
<path d="M492.312 19.2017H150.501V20.5712H492.312V19.2017Z" fill="#CCCCCC"/>
<path d="M162.145 14.3812C164.415 14.3812 166.255 12.5417 166.255 10.2726C166.255 8.00353 164.415 6.16406 162.145 6.16406C159.875 6.16406 158.035 8.00353 158.035 10.2726C158.035 12.5417 159.875 14.3812 162.145 14.3812Z" fill="#CCCCCC"/>
<path d="M173.962 14.3812C176.231 14.3812 178.071 12.5417 178.071 10.2726C178.071 8.00353 176.231 6.16406 173.962 6.16406C171.692 6.16406 169.852 8.00353 169.852 10.2726C169.852 12.5417 171.692 14.3812 173.962 14.3812Z" fill="#CCCCCC"/>
<path d="M185.778 14.3812C188.048 14.3812 189.888 12.5417 189.888 10.2726C189.888 8.00353 188.048 6.16406 185.778 6.16406C183.508 6.16406 181.668 8.00353 181.668 10.2726C181.668 12.5417 183.508 14.3812 185.778 14.3812Z" fill="#CCCCCC"/>
<path d="M407.14 49.104H235.673C233.778 49.104 231.961 49.8565 230.621 51.1959C229.281 52.5352 228.529 54.3519 228.529 56.246C228.529 58.1402 229.281 59.9568 230.621 61.2962C231.961 62.6356 233.778 63.3881 235.673 63.3881H407.14C409.035 63.3881 410.852 62.6356 412.192 61.2962C413.532 59.9568 414.284 58.1402 414.284 56.246C414.284 54.3519 413.532 52.5352 412.192 51.1959C410.852 49.8565 409.035 49.104 407.14 49.104ZM407.14 62.2893H235.673C234.07 62.2893 232.532 61.6526 231.398 60.5193C230.265 59.3859 229.628 57.8488 229.628 56.246C229.628 54.6433 230.265 53.1061 231.398 51.9728C232.532 50.8395 234.07 50.2028 235.673 50.2028H407.14C408.743 50.2028 410.281 50.8395 411.415 51.9728C412.548 53.1061 413.185 54.6433 413.185 56.246C413.185 57.8488 412.548 59.3859 411.415 60.5193C410.281 61.6526 408.743 62.2893 407.14 62.2893Z" fill="#CCCCCC"/>
<path d="M459.608 106.004H288.141C286.246 106.004 284.429 106.757 283.089 108.096C281.749 109.436 280.997 111.252 280.997 113.146C280.997 115.041 281.749 116.857 283.089 118.197C284.429 119.536 286.246 120.288 288.141 120.288H459.608C461.503 120.288 463.32 119.536 464.66 118.197C466 116.857 466.753 115.041 466.753 113.146C466.753 111.252 466 109.436 464.66 108.096C463.32 106.757 461.503 106.004 459.608 106.004Z" fill="white"/>
<path d="M459.608 132.375H288.141C286.246 132.375 284.429 133.127 283.089 134.467C281.749 135.806 280.997 137.623 280.997 139.517C280.997 141.411 281.749 143.228 283.089 144.567C284.429 145.907 286.246 146.659 288.141 146.659H459.608C461.503 146.659 463.32 145.907 464.66 144.567C466 143.228 466.753 141.411 466.753 139.517C466.753 137.623 466 135.806 464.66 134.467C463.32 133.127 461.503 132.375 459.608 132.375Z" fill="white"/>
<path d="M459.608 158.746H288.141C286.246 158.746 284.429 159.498 283.089 160.837C281.749 162.177 280.997 163.993 280.997 165.888C280.997 167.782 281.749 169.598 283.089 170.938C284.429 172.277 286.246 173.03 288.141 173.03H459.608C461.503 173.03 463.32 172.277 464.66 170.938C466 169.598 466.753 167.782 466.753 165.888C466.753 163.993 466 162.177 464.66 160.837C463.32 159.498 461.503 158.746 459.608 158.746Z" fill="white"/>
<path d="M260.432 94.1924H182.381C180.707 94.1944 179.102 94.8601 177.918 96.0434C176.734 97.2268 176.068 98.8313 176.066 100.505V125.332H177.166V100.505C177.168 99.1227 177.718 97.7978 178.696 96.8205C179.673 95.8432 180.999 95.2932 182.381 95.2912H260.432C261.814 95.2923 263.14 95.842 264.118 96.8195C265.096 97.797 265.646 99.1225 265.647 100.505V178.529C265.646 179.911 265.096 181.237 264.118 182.214C263.14 183.192 261.814 183.741 260.432 183.742H238.795V184.841H260.432C262.106 184.84 263.711 184.175 264.895 182.991C266.079 181.808 266.745 180.203 266.746 178.529V100.505C266.745 98.831 266.079 97.226 264.895 96.0425C263.712 94.8589 262.106 94.1935 260.432 94.1924Z" fill="#CCCCCC"/>
<path d="M58.048 174.467C57.7719 174.479 46.0067 173.663 45.7063 173.653L46.7632 163.106L53.4643 162.905L66.2694 139.196C64.4934 135.81 66.6788 131.318 70.4463 130.626C78.038 128.901 80.646 140.841 73.0311 142.43L62.4396 171.401C62.1073 172.298 61.5086 173.073 60.7238 173.621C59.9389 174.169 59.0053 174.464 58.048 174.467Z" fill="#FFB8B8"/>
<path d="M27.0304 179.9C15.8348 179.927 14.8519 163.013 26.0725 161.821C55.7431 160.029 51.9884 152.579 54.2416 174.553C54.3108 175.205 54.1185 175.857 53.7069 176.368C53.2953 176.878 52.6981 177.204 52.0463 177.275L28.0023 179.848C27.6795 179.882 27.3551 179.9 27.0304 179.9Z" fill="#DB283D"/>
<path d="M24.4751 126.422C39.8987 135.196 27.2367 158.345 11.5257 150.102C-3.89738 141.328 8.76458 118.179 24.4751 126.422Z" fill="#FFB8B8"/>
<path d="M38.4972 325.689L45.2344 325.689L48.4401 299.709L38.4961 299.71L38.4972 325.689Z" fill="#FFB8B8"/>
<path d="M37.0533 331.943L58.2288 331.943C58.1479 321.02 43.9849 324.167 37.053 323.765L37.0533 331.943Z" fill="#2F2E41"/>
<path d="M9.36975 325.689L16.107 325.689L19.3126 299.709L9.36865 299.71L9.36975 325.689Z" fill="#FFB8B8"/>
<path d="M7.92591 331.943L29.1014 331.943C29.0205 321.02 14.8574 324.167 7.92554 323.765L7.92591 331.943Z" fill="#2F2E41"/>
<path d="M17.0268 316.616C15.3984 316.17 6.54982 317.521 5.50553 315.747C1.85856 279.207 2.66924 243.446 10.7648 223.796L38.5997 222.093C44.8241 233.452 59.1319 308.827 50.5012 313.41L39.4029 313.806C38.77 313.826 38.1493 313.629 37.645 313.246C37.1407 312.863 36.7835 312.318 36.6334 311.703L27.3485 258.898C25.0363 255.667 20.4913 314.509 19.7407 314.289C19.6429 314.938 19.3149 315.53 18.8167 315.957C18.3185 316.384 17.6832 316.618 17.0268 316.616Z" fill="#2F2E41"/>
<path d="M9.88073 228.415C-4.17275 213.717 4.79146 174.312 4.33777 175.15C4.37627 174.185 7.55936 159.319 15.7933 156.879C22.326 154.724 29.5564 161.171 30.4483 167.691L40.2342 225.461C40.2848 225.776 40.2608 226.098 40.164 226.401C40.0673 226.705 39.9005 226.981 39.6771 227.208C40.1583 228.706 10.5687 228.115 9.88073 228.415Z" fill="#DB283D"/>
<path d="M14.4417 136.761C15.6759 135.981 16.2842 134.643 17.0025 133.425C20.7866 131.269 25.1366 136.484 29.139 134.538C40.4562 123.677 28.8234 120.473 18.4001 119.9C15.9378 119.597 13.8432 120.47 11.9815 121.912C-8.83943 120.322 1.14602 147.998 14.2866 151.654C16.6067 152.669 18.3471 150.613 16.301 148.744C13.4703 145.778 9.96357 139.806 14.4417 136.761Z" fill="#2F2E41"/>
<path d="M230.551 124.233H79.968C77.4912 124.236 75.1169 125.222 73.3655 126.972C71.6142 128.723 70.6287 131.097 70.6252 133.572V323.66C70.6287 326.136 71.6142 328.51 73.3655 330.261C75.1169 332.011 77.4912 332.997 79.968 333H230.551C233.028 332.997 235.402 332.011 237.154 330.261C238.905 328.51 239.89 326.136 239.894 323.66V133.572C239.89 131.097 238.905 128.723 237.154 126.972C235.402 125.222 233.028 124.236 230.551 124.233ZM238.795 323.66C238.792 325.845 237.923 327.94 236.377 329.485C234.832 331.029 232.737 331.899 230.551 331.901H79.968C77.7825 331.899 75.6872 331.029 74.1418 329.485C72.5964 327.94 71.7271 325.845 71.7244 323.66V133.572C71.7271 131.388 72.5964 129.293 74.1418 127.748C75.6872 126.203 77.7825 125.334 79.968 125.332H230.551C232.737 125.334 234.832 126.203 236.377 127.748C237.923 129.293 238.792 131.388 238.795 133.572V323.66Z" fill="#3F3D56"/>
<path d="M37.5396 204.223C32.5767 204.785 30.3977 193.239 28.5002 190.298L38.3843 186.461L41.6004 192.341L68.5449 193.011C68.7051 192.794 68.8799 192.588 69.0683 192.395C74.4119 186.802 83.114 195.182 77.7907 200.764C77.2033 201.387 76.4904 201.88 75.6989 202.208C74.9074 202.537 74.0553 202.694 73.1987 202.669C72.3421 202.644 71.5005 202.438 70.7293 202.064C69.9581 201.691 69.2748 201.158 68.7246 200.501C68.0592 200.549 38.1904 204.24 37.5396 204.223Z" fill="#FFB8B8"/>
<path d="M30.2199 198.711C28.5674 200.303 15.8811 177.959 14.9543 177.328C8.54386 167.367 23.6352 157.533 30.156 167.44L43.3442 187.701C43.7011 188.25 43.8254 188.919 43.6897 189.56C43.5539 190.202 43.1693 190.763 42.6202 191.121C42.0191 191.402 30.644 199.316 30.2199 198.711Z" fill="#DB283D"/>
<path d="M200.874 255.811H109.645C100.326 255.766 100.287 241.575 109.646 241.527H200.874C210.187 241.57 210.237 255.762 200.874 255.811Z" fill="#CCCCCC"/>
<path d="M200.874 282.182H109.645C100.326 282.137 100.287 267.946 109.646 267.897H200.874C210.187 267.941 210.237 282.133 200.874 282.182Z" fill="#CCCCCC"/>
<path d="M200.874 308.552H109.645C100.326 308.507 100.287 294.317 109.646 294.268H200.874C210.187 294.312 210.237 308.503 200.874 308.552Z" fill="#CCCCCC"/>
<path d="M234.948 141.813C232.122 141.813 229.359 140.976 227.009 139.406C224.66 137.836 222.828 135.606 221.747 132.995C220.665 130.385 220.382 127.513 220.933 124.743C221.485 121.972 222.846 119.427 224.844 117.429C226.842 115.431 229.388 114.071 232.16 113.52C234.932 112.968 237.805 113.251 240.416 114.332C243.027 115.414 245.259 117.244 246.829 119.593C248.399 121.942 249.237 124.704 249.237 127.529C249.232 131.316 247.726 134.947 245.047 137.625C242.368 140.303 238.736 141.809 234.948 141.813Z" fill="#DB283D"/>
<path d="M241.543 126.98H235.497V120.112C235.497 119.967 235.439 119.827 235.336 119.724C235.233 119.621 235.093 119.563 234.948 119.563C234.802 119.563 234.662 119.621 234.559 119.724C234.456 119.827 234.398 119.967 234.398 120.112V126.98H228.353C228.207 126.98 228.067 127.038 227.964 127.141C227.861 127.244 227.803 127.383 227.803 127.529C227.803 127.675 227.861 127.815 227.964 127.918C228.067 128.021 228.207 128.078 228.353 128.078H234.398V134.946C234.398 135.092 234.456 135.231 234.559 135.334C234.662 135.437 234.802 135.495 234.948 135.495C235.093 135.495 235.233 135.437 235.336 135.334C235.439 135.231 235.497 135.092 235.497 134.946V128.078H241.543C241.688 128.078 241.828 128.021 241.931 127.918C242.034 127.815 242.092 127.675 242.092 127.529C242.092 127.383 242.034 127.244 241.931 127.141C241.828 127.038 241.688 126.98 241.543 126.98Z" fill="white"/>
<path d="M199.225 224.386H111.294C108.889 224.383 106.585 223.427 104.885 221.728C103.185 220.028 102.228 217.724 102.226 215.321V166.096C102.228 163.693 103.185 161.389 104.885 159.689C106.585 157.99 108.889 157.034 111.294 157.031H199.225C201.63 157.034 203.934 157.99 205.634 159.689C207.334 161.389 208.291 163.693 208.293 166.096V215.321C208.291 217.724 207.334 220.028 205.634 221.728C203.934 223.427 201.63 224.383 199.225 224.386Z" fill="#DB283D"/>
</g>
<defs>
<clipPath id="clip0_1167_210774">
<rect width="493" height="333" fill="white"/>
</clipPath>
</defs>
</svg>
